/* XPM */
static char * menub_xpm[] = {
"20 20 13 1",
" 	c None",
".	c #444444",
"+	c #303030",
"@	c #2E2E2E",
"#	c #2D2D2D",
"$	c #2B2B2B",
"%	c #2A2A2A",
"&	c #292929",
"*	c #282828",
"=	c #272727",
"-	c #252525",
";	c #242424",
">	c #212121",
"....................",
"++++++++++++++++++++",
"++++++++++++++++++++",
"++++++++++++++++++++",
"++++++++++++++++++++",
"@@@@@@@@@@@@@@@@@@@@",
"####################",
"$$$$%$$$$$$$$$$$$$$$",
"&&&&*&&&&&&&&&&&&&&&",
"********************",
"====================",
"--------------------",
";;;;;;;;;;;;;;;;;;;;",
">>>>>>>>>>>>>>>>>>>>",
">>>>>>>>>>>>>>>>>>>>",
">>>>>>>>>>>>>>>>>>>>",
">>>>>>>>>>>>>>>>>>>>",
">>>>>>>>>>>>>>>>>>>>",
">>>>>>>>>>>>>>>>>>>>",
";;;;;;;;;;;;;;;;;;;;"};
