/* XPM */
static char * close_xpm[] = {
"18 18 4 1",
" 	c None",
".	c #4A90D9",
"+	c #1E1E1E",
"@	c #FFFFFF",
"..................",
"++++++++++++++++++",
"++++++++++++++++++",
"++++++++++++++++++",
"++++++++++++++++++",
"++++++++++++++++++",
"++++++@+++@+++++++",
"+++++++@+@++++++++",
"++++++++@+++++++++",
"+++++++@+@++++++++",
"++++++@+++@+++++++",
"++++++++++++++++++",
"++++++++++++++++++",
"++++++++++++++++++",
"++++++++++++++++++",
"++++++++++++++++++",
"++++++++++++++++++",
"++++++++++++++++++"};
