/* XPM */
static char * min_xpm[] = {
"20 20 4 1",
" 	c None",
".	c #4A90D9",
"+	c #1E1E1E",
"@	c #FFFFFF",
"....................",
"++++++++++++++++++++",
"++++++++++++++++++++",
"++++++++++++++++++++",
"++++++++++++++++++++",
"++++++++++++++++++++",
"++++++++++++++++++++",
"++++++++++++++++++++",
"+++++++@+++@++++++++",
"++++++++@+@+++++++++",
"+++++++++@++++++++++",
"++++++++++++++++++++",
"++++++++++++++++++++",
"++++++++++++++++++++",
"++++++++++++++++++++",
"++++++++++++++++++++",
"++++++++++++++++++++",
"++++++++++++++++++++",
"++++++++++++++++++++",
"++++++++++++++++++++"};
