/* XPM */
static char * toolbar_focused_xpm[] = {
"10 18 3 1",
" 	c None",
".	c #4A90D9",
"+	c #1E1E1E",
"..........",
"++++++++++",
"++++++++++",
"++++++++++",
"++++++++++",
"++++++++++",
"++++++++++",
"++++++++++",
"++++++++++",
"++++++++++",
"++++++++++",
"++++++++++",
"++++++++++",
"++++++++++",
"++++++++++",
"++++++++++",
"++++++++++",
"++++++++++"};
